<svg width="120" height="120" viewBox="0 0 120 120" fill="none" xmlns="http://www.w3.org/2000/svg">
  <defs>
    <linearGradient id="sGrad" x1="20" y1="100" x2="100" y2="20" gradientUnits="userSpaceOnUse">
      <stop offset="0%"   stop-color="#d946ef"/>
      <stop offset="45%"  stop-color="#6366f1"/>
      <stop offset="100%" stop-color="#22d3ee"/>
    </linearGradient>
    <linearGradient id="hexBorder" x1="17" y1="112" x2="103" y2="8" gradientUnits="userSpaceOnUse">
      <stop offset="0%"   stop-color="#d946ef" stop-opacity="0.9"/>
      <stop offset="50%"  stop-color="#6366f1" stop-opacity="0.7"/>
      <stop offset="100%" stop-color="#22d3ee" stop-opacity="0.9"/>
    </linearGradient>
    <linearGradient id="hexFill" x1="17" y1="8" x2="103" y2="112" gradientUnits="userSpaceOnUse">
      <stop offset="0%"   stop-color="#0e1028"/>
      <stop offset="100%" stop-color="#070912"/>
    </linearGradient>
    <linearGradient id="hexSheen" x1="17" y1="8" x2="70" y2="60" gradientUnits="userSpaceOnUse">
      <stop offset="0%"   stop-color="white" stop-opacity="0.09"/>
      <stop offset="100%" stop-color="white" stop-opacity="0"/>
    </linearGradient>
    <radialGradient id="outerGlow" cx="50%" cy="50%" r="50%">
      <stop offset="0%"   stop-color="#6366f1" stop-opacity="0.35"/>
      <stop offset="70%"  stop-color="#d946ef" stop-opacity="0.1"/>
      <stop offset="100%" stop-color="#22d3ee" stop-opacity="0"/>
    </radialGradient>
    <filter id="sGlow" x="-20%" y="-20%" width="140%" height="140%">
      <feGaussianBlur stdDeviation="2.5" result="blur"/>
      <feMerge><feMergeNode in="blur"/><feMergeNode in="SourceGraphic"/></feMerge>
    </filter>
    <filter id="hexGlow" x="-30%" y="-30%" width="160%" height="160%">
      <feGaussianBlur stdDeviation="5" result="blur"/>
      <feMerge><feMergeNode in="blur"/><feMergeNode in="SourceGraphic"/></feMerge>
    </filter>
  </defs>
  <circle cx="60" cy="60" r="58" fill="url(#outerGlow)"/>
  <path d="M60 9 L103.3 33 L103.3 87 L60 111 L16.7 87 L16.7 33 Z" fill="url(#hexFill)"/>
  <path d="M60 9 L103.3 33 L103.3 87 L60 111 L16.7 87 L16.7 33 Z" fill="url(#hexSheen)"/>
  <path d="M16.7 33 L60 9 L60 23 L27 41 Z" fill="rgba(0,0,0,0.25)"/>
  <path d="M16.7 87 L16.7 33 L27 41 L27 79 Z" fill="rgba(0,0,0,0.35)"/>
  <path d="M38 34 L80 34 L80 45 L51 45 L51 57 L38 57 Z" fill="url(#sGrad)" filter="url(#sGlow)"/>
  <path d="M38 57 L80 57 L80 63 L38 63 Z" fill="url(#sGrad)" opacity="0.55"/>
  <path d="M38 63 L80 63 L80 86 L69 86 L69 75 L38 75 Z" fill="url(#sGrad)" filter="url(#sGlow)"/>
  <path d="M38 34 L80 34 L80 36.5 L38 36.5 Z" fill="white" opacity="0.18"/>
  <path d="M38 63 L80 63 L80 65 L38 65 Z" fill="white" opacity="0.08"/>
  <path d="M60 9 L103.3 33 L103.3 87 L60 111 L16.7 87 L16.7 33 Z" fill="none" stroke="url(#hexBorder)" stroke-width="1.5" filter="url(#hexGlow)"/>
  <circle cx="60"    cy="9"   r="2" fill="#22d3ee" opacity="0.8"/>
  <circle cx="103.3" cy="33"  r="2" fill="#6366f1" opacity="0.8"/>
  <circle cx="103.3" cy="87"  r="2" fill="#6366f1" opacity="0.6"/>
  <circle cx="60"    cy="111" r="2" fill="#d946ef" opacity="0.8"/>
  <circle cx="16.7"  cy="87"  r="2" fill="#d946ef" opacity="0.6"/>
  <circle cx="16.7"  cy="33"  r="2" fill="#22d3ee" opacity="0.6"/>
</svg>
